<svg xmlns="http://www.w3.org/2000/svg" version="1.1" xmlns:xlink="http://www.w3.org/1999/xlink" xmlns:svgjs="http://svgjs.dev/svgjs" width="2000" height="1500" viewBox="0 0 2000 1500"><rect width="2000" height="1500" fill="#6936f5"></rect><g transform="matrix(0.75,0,0,0.75,249.090909090909,282.7536437246963)"><svg viewBox="0 0 396 247" data-background-color="#6936f5" preserveAspectRatio="xMidYMid meet" height="1247" width="2000" xmlns="http://www.w3.org/2000/svg" xmlns:xlink="http://www.w3.org/1999/xlink"><g id="tight-bounds" transform="matrix(1,0,0,1,0.2400000000000091,-0.09999999999999432)"><svg viewBox="0 0 395.52 247.2" height="247.2" width="395.52"><g><svg></svg></g><g><svg viewBox="0 0 395.52 247.2" height="247.2" width="395.52"><g transform="matrix(1,0,0,1,124.69627826086955,47.215199999999996)"><svg viewBox="0 0 146.1274434782609 152.7696" height="152.7696" width="146.1274434782609"><g><svg viewBox="0 0 146.1274434782609 152.7696" height="152.7696" width="146.1274434782609"><g><svg viewBox="0 0 146.1274434782609 152.7696" height="152.7696" width="146.1274434782609"><g><svg viewBox="0 0 146.1274434782609 152.7696" height="152.7696" width="146.1274434782609"><g id="textblocktransform"><svg viewBox="0 0 146.1274434782609 152.7696" height="152.7696" width="146.1274434782609" id="textblock"><g><svg viewBox="0 0 146.1274434782609 152.7696" height="152.7696" width="146.1274434782609"><g transform="matrix(1,0,0,1,0,0)"><svg width="146.1274434782609" viewBox="1.75 -35.35 34.1 35.65" height="152.7696" data-palette-color="#ffffff"><path d="M1.75-17.5Q1.75-22.65 4.08-26.73 6.4-30.8 10.43-33.08 14.45-35.35 19.45-35.35L19.45-35.35Q25.3-35.35 29.7-32.35 34.1-29.35 35.85-24.05L35.85-24.05 27.8-24.05Q26.6-26.55 24.43-27.8 22.25-29.05 19.4-29.05L19.4-29.05Q16.35-29.05 13.98-27.63 11.6-26.2 10.28-23.6 8.95-21 8.95-17.5L8.95-17.5Q8.95-14.05 10.28-11.43 11.6-8.8 13.98-7.38 16.35-5.95 19.4-5.95L19.4-5.95Q22.25-5.95 24.43-7.23 26.6-8.5 27.8-11L27.8-11 35.85-11Q34.1-5.65 29.73-2.68 25.35 0.3 19.45 0.3L19.45 0.3Q14.45 0.3 10.43-1.98 6.4-4.25 4.08-8.3 1.75-12.35 1.75-17.5L1.75-17.5Z" opacity="1" transform="matrix(1,0,0,1,0,0)" fill="#ffffff" class="undefined-text-0" data-fill-palette-color="primary" id="text-0"></path></svg></g></svg></g></svg></g></svg></g></svg></g></svg></g></svg></g><path d="M88.522 41.215L88.522 0 335.722 0 335.722 247.2 88.522 247.2 88.522 205.985 102.299 205.985 102.299 233.423 321.945 233.423 321.945 13.777 102.299 13.777 102.299 41.215Z" fill="#ffffff" stroke="transparent" data-fill-palette-color="primary"></path></svg></g><defs></defs></svg><rect width="395.52" height="247.2" fill="none" stroke="none" visibility="hidden"></rect></g></svg></g></svg>